<svg width="24" height="24" viewBox="0 0 24 24" fill="none" xmlns="http://www.w3.org/2000/svg">
<path d="M7.19699 11.6798C7.19647 11.256 7.37848 10.8526 7.6965 10.5725L14.8382 4.28958C15.3305 3.87657 16.0624 3.93203 16.4867 4.41449C16.9111 4.89696 16.8726 5.62995 16.4002 6.06541L10.155 11.5594C10.1203 11.5898 10.1004 11.6337 10.1004 11.6798C10.1004 11.7259 10.1203 11.7698 10.155 11.8002L16.4002 17.2942C16.7289 17.57 16.8825 18.0023 16.8014 18.4237C16.7203 18.8451 16.4174 19.1896 16.0097 19.3238C15.6021 19.458 15.1538 19.3609 14.8382 19.07L7.69907 12.789C7.38027 12.5084 7.1974 12.1044 7.19699 11.6798Z" fill="white"/>
<mask id="mask0_2:35" style="mask-type:alpha" maskUnits="userSpaceOnUse" x="7" y="4" width="10" height="16">
<path d="M7.19699 11.6798C7.19647 11.256 7.37848 10.8526 7.6965 10.5725L14.8382 4.28958C15.3305 3.87657 16.0624 3.93203 16.4867 4.41449C16.9111 4.89696 16.8726 5.62995 16.4002 6.06541L10.155 11.5594C10.1203 11.5898 10.1004 11.6337 10.1004 11.6798C10.1004 11.7259 10.1203 11.7698 10.155 11.8002L16.4002 17.2942C16.7289 17.57 16.8825 18.0023 16.8014 18.4237C16.7203 18.8451 16.4174 19.1896 16.0097 19.3238C15.6021 19.458 15.1538 19.3609 14.8382 19.07L7.69907 12.789C7.38027 12.5084 7.1974 12.1044 7.19699 11.6798Z" fill="white"/>
</mask>
<g mask="url(#mask0_2:35)">
</g>
</svg>
