<svg width="25" height="25" viewBox="0 0 25 25" fill="none" xmlns="http://www.w3.org/2000/svg">
<circle cx="12.5" cy="12.5" r="12.5" fill="black"/>
<path d="M13.3005 12.3574C13.2796 12.3366 13.2679 12.3082 13.2679 12.2787C13.2679 12.2492 13.2796 12.2209 13.3005 12.2L17.42 8.08098C17.6805 7.82014 17.6802 7.39753 17.4193 7.13705C17.1585 6.87658 16.7359 6.87688 16.4754 7.13772L12.3564 11.255C12.3355 11.2759 12.3072 11.2876 12.2777 11.2876C12.2481 11.2876 12.2198 11.2759 12.1989 11.255L8.07992 7.13772C7.81945 6.87713 7.39704 6.87703 7.13645 7.1375C6.87585 7.39797 6.87575 7.82038 7.13622 8.08098L11.2548 12.2C11.2757 12.2209 11.2875 12.2492 11.2875 12.2787C11.2875 12.3082 11.2757 12.3366 11.2548 12.3574L7.13622 16.4769C6.96773 16.6455 6.90196 16.8911 6.96371 17.1213C7.02545 17.3515 7.20532 17.5313 7.43556 17.593C7.6658 17.6546 7.91143 17.5887 8.07992 17.4201L12.1989 13.3007C12.2198 13.2798 12.2481 13.268 12.2777 13.268C12.3072 13.268 12.3355 13.2798 12.3564 13.3007L16.4754 17.4201C16.7359 17.6807 17.1583 17.6808 17.4189 17.4204C17.6795 17.1599 17.6796 16.7375 17.4191 16.4769L13.3005 12.3574Z" fill="white"/>
<mask id="mask0_24_583" style="mask-type:alpha" maskUnits="userSpaceOnUse" x="6" y="6" width="12" height="12">
<path d="M13.3005 12.3574C13.2796 12.3366 13.2679 12.3082 13.2679 12.2787C13.2679 12.2492 13.2796 12.2209 13.3005 12.2L17.42 8.08098C17.6805 7.82014 17.6802 7.39753 17.4193 7.13705C17.1585 6.87658 16.7359 6.87688 16.4754 7.13772L12.3564 11.255C12.3355 11.2759 12.3072 11.2876 12.2777 11.2876C12.2481 11.2876 12.2198 11.2759 12.1989 11.255L8.07992 7.13772C7.81945 6.87713 7.39704 6.87703 7.13645 7.1375C6.87585 7.39797 6.87575 7.82038 7.13622 8.08098L11.2548 12.2C11.2757 12.2209 11.2875 12.2492 11.2875 12.2787C11.2875 12.3082 11.2757 12.3366 11.2548 12.3574L7.13622 16.4769C6.96773 16.6455 6.90196 16.8911 6.96371 17.1213C7.02545 17.3515 7.20532 17.5313 7.43556 17.593C7.6658 17.6546 7.91143 17.5887 8.07992 17.4201L12.1989 13.3007C12.2198 13.2798 12.2481 13.268 12.2777 13.268C12.3072 13.268 12.3355 13.2798 12.3564 13.3007L16.4754 17.4201C16.7359 17.6807 17.1583 17.6808 17.4189 17.4204C17.6795 17.1599 17.6796 16.7375 17.4191 16.4769L13.3005 12.3574Z" fill="white"/>
</mask>
<g mask="url(#mask0_24_583)">
</g>
</svg>
