<svg width="24" height="24" viewBox="0 0 24 24" fill="none" xmlns="http://www.w3.org/2000/svg">
<path d="M13.1527 11.7944C13.1226 11.7644 13.1057 11.7236 13.1057 11.6811C13.1057 11.6385 13.1226 11.5978 13.1527 11.5677L19.0848 5.63634C19.4598 5.26073 19.4594 4.65217 19.0838 4.27709C18.7082 3.90201 18.0996 3.90244 17.7245 4.27805L11.7932 10.2069C11.7631 10.237 11.7223 10.2539 11.6798 10.2539C11.6373 10.2539 11.5965 10.237 11.5665 10.2069L5.63507 4.27805C5.25999 3.9028 4.65172 3.90265 4.27646 4.27773C3.9012 4.65281 3.90106 5.26108 4.27614 5.63634L10.2069 11.5677C10.237 11.5978 10.2539 11.6385 10.2539 11.6811C10.2539 11.7236 10.237 11.7644 10.2069 11.7944L4.27614 17.7265C4.03351 17.9692 3.93881 18.323 4.02772 18.6545C4.11663 18.986 4.37564 19.2448 4.70718 19.3336C5.03873 19.4224 5.39244 19.3275 5.63507 19.0847L11.5665 13.1527C11.5965 13.1226 11.6373 13.1057 11.6798 13.1057C11.7223 13.1057 11.7631 13.1226 11.7932 13.1527L17.7245 19.0847C18.0996 19.46 18.7079 19.4601 19.0832 19.0851C19.4584 18.71 19.4586 18.1017 19.0835 17.7265L13.1527 11.7944Z" fill="black"/>
<mask id="mask0_2:135" style="mask-type:alpha" maskUnits="userSpaceOnUse" x="3" y="3" width="17" height="17">
<path d="M13.1527 11.7944C13.1226 11.7644 13.1057 11.7236 13.1057 11.6811C13.1057 11.6385 13.1226 11.5978 13.1527 11.5677L19.0848 5.63634C19.4598 5.26073 19.4594 4.65217 19.0838 4.27709C18.7082 3.90201 18.0996 3.90244 17.7245 4.27805L11.7932 10.2069C11.7631 10.237 11.7223 10.2539 11.6798 10.2539C11.6373 10.2539 11.5965 10.237 11.5665 10.2069L5.63507 4.27805C5.25999 3.9028 4.65172 3.90265 4.27646 4.27773C3.9012 4.65281 3.90106 5.26108 4.27614 5.63634L10.2069 11.5677C10.237 11.5978 10.2539 11.6385 10.2539 11.6811C10.2539 11.7236 10.237 11.7644 10.2069 11.7944L4.27614 17.7265C4.03351 17.9692 3.93881 18.323 4.02772 18.6545C4.11663 18.986 4.37564 19.2448 4.70718 19.3336C5.03873 19.4224 5.39244 19.3275 5.63507 19.0847L11.5665 13.1527C11.5965 13.1226 11.6373 13.1057 11.6798 13.1057C11.7223 13.1057 11.7631 13.1226 11.7932 13.1527L17.7245 19.0847C18.0996 19.46 18.7079 19.4601 19.0832 19.0851C19.4584 18.71 19.4586 18.1017 19.0835 17.7265L13.1527 11.7944Z" fill="white"/>
</mask>
<g mask="url(#mask0_2:135)">
</g>
</svg>
