<svg width="40" height="40" viewBox="0 0 40 40" fill="none" xmlns="http://www.w3.org/2000/svg">
<path d="M21.9212 19.6574C21.8711 19.6074 21.8428 19.5394 21.8428 19.4685C21.8428 19.3976 21.8711 19.3297 21.9212 19.2796L31.808 9.39395C32.4331 8.76793 32.4324 7.75367 31.8063 7.12854C31.1803 6.5034 30.1661 6.50412 29.5409 7.13014L19.6553 17.0115C19.6052 17.0617 19.5373 17.0899 19.4664 17.0899C19.3955 17.0899 19.3275 17.0617 19.2775 17.0115L9.39182 7.13014C8.76668 6.50471 7.7529 6.50447 7.12747 7.12961C6.50204 7.75474 6.5018 8.76852 7.12693 9.39395L17.0115 19.2796C17.0617 19.3297 17.0899 19.3976 17.0899 19.4685C17.0899 19.5394 17.0617 19.6074 17.0115 19.6574L7.12693 29.5441C6.72254 29.9487 6.56471 30.5383 6.71289 31.0908C6.86108 31.6433 7.29276 32.0748 7.84534 32.2227C8.39791 32.3706 8.98742 32.2125 9.39182 31.808L19.2775 21.9212C19.3275 21.8711 19.3955 21.8429 19.4664 21.8429C19.5373 21.8429 19.6052 21.8711 19.6553 21.9212L29.5409 31.808C30.1661 32.4334 31.1799 32.4336 31.8053 31.8085C32.4307 31.1834 32.431 30.1696 31.8058 29.5441L21.9212 19.6574Z" fill="white"/>
<mask id="mask0_26:884" style="mask-type:alpha" maskUnits="userSpaceOnUse" x="6" y="6" width="27" height="27">
<path d="M21.9212 19.6574C21.8711 19.6074 21.8428 19.5394 21.8428 19.4685C21.8428 19.3976 21.8711 19.3297 21.9212 19.2796L31.808 9.39395C32.4331 8.76793 32.4324 7.75367 31.8063 7.12854C31.1803 6.5034 30.1661 6.50412 29.5409 7.13014L19.6553 17.0115C19.6052 17.0617 19.5373 17.0899 19.4664 17.0899C19.3955 17.0899 19.3275 17.0617 19.2775 17.0115L9.39182 7.13014C8.76668 6.50471 7.7529 6.50447 7.12747 7.12961C6.50204 7.75474 6.5018 8.76852 7.12693 9.39395L17.0115 19.2796C17.0617 19.3297 17.0899 19.3976 17.0899 19.4685C17.0899 19.5394 17.0617 19.6074 17.0115 19.6574L7.12693 29.5441C6.72254 29.9487 6.56471 30.5383 6.71289 31.0908C6.86108 31.6433 7.29276 32.0748 7.84534 32.2227C8.39791 32.3706 8.98742 32.2125 9.39182 31.808L19.2775 21.9212C19.3275 21.8711 19.3955 21.8429 19.4664 21.8429C19.5373 21.8429 19.6052 21.8711 19.6553 21.9212L29.5409 31.808C30.1661 32.4334 31.1799 32.4336 31.8053 31.8085C32.4307 31.1834 32.431 30.1696 31.8058 29.5441L21.9212 19.6574Z" fill="white"/>
</mask>
<g mask="url(#mask0_26:884)">
</g>
</svg>
