<svg width="207" height="185" viewBox="0 0 207 185" fill="none" xmlns="http://www.w3.org/2000/svg">
<path d="M15.5886 49.9208C15.5886 62.1782 25.5693 72.1129 37.8836 72.1129H46.3887C46.2063 73.1773 46.1068 74.2665 46.1068 75.3804C46.1068 77.9714 46.625 80.4427 47.5534 82.6994H43.2884C28.2469 82.6994 16.0528 94.8372 16.0528 109.809C16.0528 124.781 28.2469 136.919 43.2884 136.919H55.0638C56.0212 146.421 63.1918 154.099 72.4678 155.877C69.724 158.967 68.0578 163.027 68.0578 167.474C68.0578 177.153 75.9412 185 85.6649 185H138.801C148.525 185 156.409 177.153 156.409 167.474C156.409 163.212 154.879 159.305 152.338 156.269H185.377C197.318 156.269 207 146.631 207 134.745C207 122.859 197.318 113.221 185.377 113.221H165.187C165.328 112.103 165.411 110.965 165.411 109.805C165.411 103.031 162.912 96.8464 158.783 92.0936C164.582 88.76 168.491 82.522 168.491 75.3763C168.491 64.7197 159.811 56.0805 149.101 56.0763H124.556C125.123 54.1208 125.434 52.0538 125.434 49.9167C125.434 37.6593 115.454 27.7246 103.139 27.7246H37.8794C25.5693 27.7287 15.5886 37.6634 15.5886 49.9208Z" fill="#F2F2F2"/>
<path d="M57.5093 135.092C57.0326 135.092 56.6223 134.745 56.5518 134.266L44.2459 50.5645C44.2044 50.2757 44.2956 49.9827 44.4987 49.7682C44.7018 49.5537 44.9878 49.4423 45.2821 49.467L169.618 59.3522C170.969 59.4594 172.221 60.0659 173.137 61.0561C174.057 62.0462 174.563 63.3376 174.563 64.6826V119.905C174.563 121.246 174.061 122.529 173.154 123.515C172.246 124.505 171.007 125.112 169.664 125.231L57.5963 135.087C57.5673 135.092 57.5383 135.092 57.5093 135.092ZM46.339 51.4804L58.3382 133.091L169.498 123.317C171.284 123.16 172.635 121.695 172.635 119.905V64.6826C172.635 62.9085 171.247 61.4109 169.469 61.2706L46.339 51.4804Z" fill="black"/>
<path d="M57.5093 136.329C56.4192 136.329 55.4824 135.521 55.3249 134.448L43.019 50.746C42.9195 50.0776 43.1309 49.4134 43.591 48.9224C44.0552 48.4315 44.7059 48.1798 45.3815 48.2334L169.718 58.1186C171.38 58.2506 172.921 58.9974 174.053 60.2144C175.185 61.4315 175.81 63.0199 175.81 64.6826V119.905C175.81 121.555 175.193 123.135 174.074 124.352C172.955 125.569 171.429 126.32 169.776 126.465L57.7082 136.321C57.6377 136.325 57.5714 136.329 57.5093 136.329ZM47.7938 52.8377L59.3951 131.754L169.386 122.083C170.526 121.984 171.388 121.048 171.388 119.905V64.6826C171.388 63.5521 170.501 62.595 169.365 62.5042L47.7938 52.8377Z" fill="black"/>
<path d="M158.8 164.285H59.0761C55.0514 164.285 51.4206 162.23 49.3606 158.789C47.3007 155.349 47.2178 151.194 49.1327 147.671L56.6762 133.643C56.929 133.177 57.5176 133.004 57.986 133.256C58.4543 133.507 58.6284 134.093 58.3756 134.559L50.832 148.587C49.2446 151.508 49.315 154.953 51.0227 157.803C52.7304 160.654 55.7395 162.358 59.0761 162.358H158.8C159.335 162.358 159.766 162.787 159.766 163.319C159.766 163.852 159.335 164.285 158.8 164.285Z" fill="black"/>
<path d="M158.8 165.523H59.076C54.612 165.523 50.5791 163.241 48.2953 159.425C46.0116 155.609 45.9162 150.992 48.0425 147.085L55.5819 133.062C55.8638 132.542 56.3321 132.162 56.9 131.997C57.4678 131.828 58.0647 131.89 58.5828 132.171C59.6563 132.748 60.0542 134.089 59.4739 135.153L51.9345 149.177C50.5543 151.714 50.6164 154.701 52.0961 157.176C53.5758 159.652 56.1871 161.129 59.0801 161.129H158.804C160.023 161.129 161.013 162.115 161.013 163.328C161.013 164.537 160.019 165.523 158.8 165.523Z" fill="black"/>
<path d="M45.568 51.6287C45.2571 51.6287 44.9504 51.4802 44.7639 51.2038L32.9097 34.2719C31.1689 31.6934 28.2634 30.1545 25.1424 30.1545H10.5444C10.0097 30.1545 9.57861 29.7254 9.57861 29.1932C9.57861 28.661 10.0097 28.2319 10.5444 28.2319H25.1424C28.91 28.2319 32.4124 30.0885 34.5138 33.1993L46.3679 50.127C46.6664 50.5684 46.5503 51.1666 46.1068 51.4637C45.941 51.5751 45.7545 51.6287 45.568 51.6287Z" fill="black"/>
<path d="M45.568 52.8666C44.8302 52.8666 44.1422 52.5035 43.7319 51.8929L31.8902 34.9817C30.369 32.7291 27.849 31.3924 25.1424 31.3924H10.5444C9.32581 31.3924 8.33521 30.4063 8.33521 29.1934C8.33521 27.9804 9.32581 26.9944 10.5444 26.9944H25.1424C29.3245 26.9944 33.2124 29.0572 35.5459 32.5104L47.3876 49.4216C47.7275 49.925 47.8477 50.5108 47.7358 51.0884C47.6239 51.666 47.2881 52.1652 46.799 52.4911C46.4343 52.7387 46.0074 52.8666 45.568 52.8666ZM45.7836 50.4902C45.7836 50.4943 45.7836 50.4943 45.7836 50.4902V50.4902Z" fill="black"/>
<path d="M5.91461 33.843C3.34068 33.843 1.24341 31.7554 1.24341 29.1933C1.24341 26.6313 3.34068 24.5437 5.91461 24.5437C8.48853 24.5437 10.5858 26.6313 10.5858 29.1933C10.5858 31.7554 8.48853 33.843 5.91461 33.843ZM5.91461 25.769C4.01629 25.769 2.47442 27.3038 2.47442 29.1933C2.47442 31.0829 4.01629 32.6177 5.91461 32.6177C7.81293 32.6177 9.3548 31.0829 9.3548 29.1933C9.3548 27.3038 7.81293 25.769 5.91461 25.769Z" fill="black"/>
<path d="M5.91464 35.0806C2.65268 35.0806 0 32.4402 0 29.1933C0 25.9463 2.65268 23.3059 5.91464 23.3059C9.17661 23.3059 11.8293 25.9463 11.8293 29.1933C11.8293 32.4402 9.17661 35.0806 5.91464 35.0806ZM5.91464 27.0067C4.70436 27.0067 3.71789 27.9886 3.71789 29.1933C3.71789 30.398 4.70436 31.3799 5.91464 31.3799C7.12493 31.3799 8.11139 30.398 8.11139 29.1933C8.11139 27.9886 7.12493 27.0067 5.91464 27.0067Z" fill="black"/>
<path d="M72.6875 179.81C68.9986 179.81 65.9978 176.823 65.9978 173.151C65.9978 169.479 68.9986 166.492 72.6875 166.492C76.3764 166.492 79.3772 169.479 79.3772 173.151C79.3772 176.823 76.3764 179.81 72.6875 179.81ZM72.6875 168.419C70.068 168.419 67.9334 170.539 67.9334 173.151C67.9334 175.758 70.0639 177.883 72.6875 177.883C75.307 177.883 77.4416 175.758 77.4416 173.151C77.4416 170.544 75.3112 168.419 72.6875 168.419Z" fill="black"/>
<path d="M72.6876 181.048C68.3148 181.048 64.7544 177.508 64.7544 173.151C64.7544 168.798 68.3106 165.259 72.6876 165.259C77.0645 165.259 80.6207 168.798 80.6207 173.151C80.6207 177.504 77.0603 181.048 72.6876 181.048ZM72.6876 169.657C70.7519 169.657 69.1769 171.224 69.1769 173.151C69.1769 175.078 70.7519 176.645 72.6876 176.645C74.6232 176.645 76.1982 175.078 76.1982 173.151C76.1982 171.224 74.6232 169.657 72.6876 169.657Z" fill="black"/>
<path d="M146.701 179.81C143.013 179.81 140.012 176.823 140.012 173.151C140.012 169.479 143.013 166.492 146.701 166.492C150.39 166.492 153.391 169.479 153.391 173.151C153.387 176.823 150.386 179.81 146.701 179.81ZM146.701 168.419C144.082 168.419 141.947 170.539 141.947 173.151C141.947 175.758 144.082 177.883 146.701 177.883C149.321 177.883 151.456 175.758 151.456 173.151C151.456 170.544 149.321 168.419 146.701 168.419Z" fill="black"/>
<path d="M146.701 181.048C142.329 181.048 138.772 177.508 138.772 173.151C138.772 168.798 142.329 165.259 146.701 165.259C151.074 165.259 154.635 168.798 154.635 173.151C154.63 177.504 151.074 181.048 146.701 181.048ZM146.701 169.657C144.766 169.657 143.191 171.224 143.191 173.151C143.191 175.078 144.766 176.645 146.701 176.645C148.637 176.645 150.212 175.078 150.212 173.151C150.212 171.224 148.637 169.657 146.701 169.657Z" fill="black"/>
<path d="M173.498 80.0713H173.493L49.4061 79.4607C48.8714 79.4566 48.4403 79.0234 48.4445 78.4953C48.4486 77.9631 48.8797 77.534 49.4144 77.5381L173.502 78.1487C174.036 78.1528 174.467 78.586 174.463 79.1141C174.459 79.6422 174.028 80.0713 173.498 80.0713Z" fill="black"/>
<path d="M173.498 81.3091H173.493L49.402 80.6985C48.8134 80.6943 48.258 80.4633 47.8436 80.0466C47.4291 79.6299 47.2011 79.0771 47.2053 78.4871C47.2094 77.8971 47.4415 77.3443 47.8643 76.9276C48.2829 76.515 48.8383 76.2881 49.431 76.2964L173.51 76.907C174.099 76.9111 174.654 77.1421 175.068 77.5588C175.483 77.9755 175.711 78.5284 175.707 79.1183C175.703 80.3271 174.708 81.3091 173.498 81.3091Z" fill="black"/>
<path d="M53.8203 108.959C53.3105 108.959 52.8836 108.563 52.8546 108.048C52.8256 107.515 53.2359 107.062 53.7665 107.033L173.547 100.502C174.078 100.473 174.538 100.881 174.567 101.409C174.596 101.942 174.186 102.395 173.655 102.424L53.8742 108.955C53.8535 108.959 53.8369 108.959 53.8203 108.959Z" fill="black"/>
<path d="M53.8203 110.197C52.6473 110.197 51.6774 109.285 51.6153 108.118C51.5489 106.905 52.4857 105.865 53.7001 105.799L173.481 99.2681C174.7 99.2062 175.744 100.134 175.81 101.343C175.843 101.929 175.645 102.494 175.251 102.932C174.857 103.369 174.314 103.629 173.725 103.662L53.9405 110.193C53.8908 110.197 53.8535 110.197 53.8203 110.197Z" fill="black"/>
<path d="M83.352 132.641C82.8588 132.641 82.4402 132.269 82.3904 131.77L74.8013 53.1718C74.7515 52.6437 75.1412 52.1734 75.6717 52.1197C76.2022 52.0702 76.6747 52.458 76.7286 52.9861L84.3178 131.585C84.3675 132.113 83.9779 132.583 83.4474 132.637C83.4142 132.641 83.3852 132.641 83.352 132.641Z" fill="black"/>
<path d="M83.3522 133.879C82.2083 133.879 81.2632 133.025 81.1513 131.89L73.5622 53.2916C73.4461 52.0827 74.3372 51.0059 75.5517 50.8904C76.1402 50.8368 76.7122 51.0101 77.1682 51.3814C77.6241 51.7568 77.9059 52.2849 77.964 52.8707L85.5531 131.469C85.6111 132.055 85.4329 132.624 85.0599 133.078C84.6827 133.532 84.1522 133.813 83.5677 133.87C83.5014 133.874 83.4268 133.879 83.3522 133.879Z" fill="black"/>
<path d="M113.912 129.988C113.402 129.988 112.975 129.592 112.946 129.08L108.843 55.7876C108.814 55.2554 109.22 54.8016 109.754 54.7727C110.285 54.7438 110.745 55.1481 110.774 55.6803L114.877 128.973C114.906 129.505 114.5 129.959 113.966 129.988C113.949 129.988 113.932 129.988 113.912 129.988Z" fill="black"/>
<path d="M113.912 131.226C112.739 131.226 111.769 130.314 111.707 129.146L107.603 55.8536C107.57 55.2677 107.769 54.7025 108.163 54.2652C108.557 53.8279 109.1 53.568 109.688 53.535C110.89 53.4648 111.951 54.3972 112.018 55.6102L116.121 128.903C116.154 129.489 115.955 130.054 115.561 130.491C115.168 130.929 114.625 131.189 114.036 131.222C114.003 131.226 113.957 131.226 113.912 131.226Z" fill="black"/>
<path d="M143.858 127.335C143.34 127.335 142.909 126.927 142.892 126.403L140.637 58.2135C140.621 57.6813 141.039 57.2357 141.574 57.2192C141.587 57.2192 141.595 57.2192 141.607 57.2192C142.125 57.2192 142.556 57.6277 142.573 58.1516L144.828 126.341C144.844 126.873 144.426 127.319 143.891 127.335C143.879 127.335 143.87 127.335 143.858 127.335Z" fill="black"/>
<path d="M143.858 128.573C142.66 128.573 141.69 127.636 141.649 126.444L139.394 58.2588C139.353 57.0459 140.314 56.0269 141.529 55.9856H141.603C142.801 55.9856 143.771 56.9221 143.812 58.1144L146.067 126.3C146.109 127.513 145.147 128.532 143.929 128.569L143.858 128.573Z" fill="black"/>
<path d="M25.9424 6.96004C25.4533 6.96004 24.9642 6.77438 24.587 6.40307L21.4204 3.25104C20.6743 2.50842 20.6743 1.29959 21.4204 0.556968C22.1665 -0.185656 23.3809 -0.185656 24.1269 0.556968L27.2936 3.70899C28.0396 4.45162 28.0396 5.66044 27.2936 6.40307C26.9205 6.77438 26.4315 6.96004 25.9424 6.96004Z" fill="black"/>
<path d="M36.3707 17.3404C35.8816 17.3404 35.3925 17.1548 35.0154 16.7834L31.8487 13.6314C31.1027 12.8888 31.1027 11.68 31.8487 10.9373C32.5948 10.1947 33.8092 10.1947 34.5553 10.9373L37.7219 14.0894C38.468 14.832 38.468 16.0408 37.7219 16.7834C37.3489 17.1548 36.8598 17.3404 36.3707 17.3404Z" fill="black"/>
<path d="M22.7757 17.3404C22.2867 17.3404 21.7976 17.1548 21.4204 16.7834C20.6743 16.0408 20.6743 14.832 21.4204 14.0894L24.587 10.9373C25.3331 10.1947 26.5475 10.1947 27.2936 10.9373C28.0396 11.68 28.0396 12.8888 27.2936 13.6314L24.1269 16.7834C23.7581 17.1548 23.2648 17.3404 22.7757 17.3404Z" fill="black"/>
<path d="M33.2041 6.96004C32.715 6.96004 32.2259 6.77438 31.8487 6.40307C31.1027 5.66044 31.1027 4.45162 31.8487 3.70899L35.0154 0.556968C35.7614 -0.185656 36.9759 -0.185656 37.7219 0.556968C38.468 1.29959 38.468 2.50842 37.7219 3.25104L34.5553 6.40307C34.1823 6.77438 33.6932 6.96004 33.2041 6.96004Z" fill="black"/>
<path d="M157.942 37.1641C157.453 37.1641 156.964 36.9785 156.587 36.6072L153.42 33.4551C152.674 32.7125 152.674 31.5037 153.42 30.7611C154.166 30.0184 155.381 30.0184 156.127 30.7611L159.293 33.9131C160.039 34.6557 160.039 35.8645 159.293 36.6072C158.924 36.9785 158.431 37.1641 157.942 37.1641Z" fill="black"/>
<path d="M168.37 47.5445C167.881 47.5445 167.392 47.3589 167.015 46.9875L163.848 43.8355C163.102 43.0929 163.102 41.8841 163.848 41.1414C164.594 40.3988 165.809 40.3988 166.555 41.1414L169.722 44.2935C170.468 45.0361 170.468 46.2449 169.722 46.9875C169.353 47.3589 168.859 47.5445 168.37 47.5445Z" fill="black"/>
<path d="M154.776 47.5445C154.286 47.5445 153.797 47.3589 153.42 46.9875C152.674 46.2449 152.674 45.0361 153.42 44.2935L156.587 41.1414C157.333 40.3988 158.547 40.3988 159.293 41.1414C160.039 41.8841 160.039 43.0929 159.293 43.8355L156.127 46.9875C155.758 47.3589 155.269 47.5445 154.776 47.5445Z" fill="black"/>
<path d="M165.204 37.1641C164.715 37.1641 164.226 36.9785 163.848 36.6072C163.102 35.8645 163.102 34.6557 163.848 33.9131L167.015 30.7611C167.761 30.0184 168.975 30.0184 169.722 30.7611C170.468 31.5037 170.468 32.7125 169.722 33.4551L166.555 36.6072C166.186 36.9785 165.693 37.1641 165.204 37.1641Z" fill="black"/>
<path d="M180.37 158.352C179.881 158.352 179.391 158.166 179.014 157.795L175.848 154.643C175.102 153.901 175.102 152.692 175.848 151.949C176.594 151.206 177.808 151.206 178.554 151.949L181.721 155.101C182.467 155.844 182.467 157.053 181.721 157.795C181.352 158.166 180.859 158.352 180.37 158.352Z" fill="black"/>
<path d="M190.798 168.732C190.309 168.732 189.82 168.547 189.443 168.176L186.276 165.023C185.53 164.281 185.53 163.072 186.276 162.329C187.022 161.587 188.236 161.587 188.982 162.329L192.149 165.481C192.895 166.224 192.895 167.433 192.149 168.176C191.776 168.547 191.287 168.732 190.798 168.732Z" fill="black"/>
<path d="M177.203 168.732C176.714 168.732 176.225 168.547 175.848 168.176C175.102 167.433 175.102 166.224 175.848 165.481L179.014 162.329C179.76 161.587 180.975 161.587 181.721 162.329C182.467 163.072 182.467 164.281 181.721 165.023L178.554 168.176C178.185 168.547 177.692 168.732 177.203 168.732Z" fill="black"/>
<path d="M187.631 158.352C187.142 158.352 186.653 158.166 186.276 157.795C185.53 157.053 185.53 155.844 186.276 155.101L189.443 151.949C190.189 151.206 191.403 151.206 192.149 151.949C192.895 152.692 192.895 153.901 192.149 154.643L188.982 157.795C188.614 158.166 188.12 158.352 187.631 158.352Z" fill="black"/>
<path d="M18.9459 157.894C18.4568 157.894 17.9677 157.709 17.5906 157.337L14.4239 154.185C13.6779 153.443 13.6779 152.234 14.4239 151.491C15.17 150.749 16.3844 150.749 17.1305 151.491L20.2971 154.643C21.0432 155.386 21.0432 156.595 20.2971 157.337C19.9241 157.709 19.435 157.894 18.9459 157.894Z" fill="black"/>
<path d="M29.3701 168.274C28.881 168.274 28.3919 168.089 28.0148 167.718L24.8481 164.566C24.1021 163.823 24.1021 162.614 24.8481 161.871C25.5942 161.129 26.8086 161.129 27.5547 161.871L30.7213 165.023C31.4674 165.766 31.4674 166.975 30.7213 167.718C30.3524 168.089 29.8633 168.274 29.3701 168.274Z" fill="black"/>
<path d="M15.7793 168.274C15.2902 168.274 14.8011 168.089 14.4239 167.718C13.6779 166.975 13.6779 165.766 14.4239 165.023L17.5906 161.871C18.3366 161.129 19.5511 161.129 20.2971 161.871C21.0432 162.614 21.0432 163.823 20.2971 164.566L17.1305 167.718C16.7575 168.089 16.2684 168.274 15.7793 168.274Z" fill="black"/>
<path d="M26.2035 157.894C25.7144 157.894 25.2253 157.709 24.8481 157.337C24.1021 156.595 24.1021 155.386 24.8481 154.643L28.0148 151.491C28.7608 150.749 29.9753 150.749 30.7213 151.491C31.4674 152.234 31.4674 153.443 30.7213 154.185L27.5547 157.337C27.1858 157.709 26.6967 157.894 26.2035 157.894Z" fill="black"/>
<path d="M34.2402 110.061C29.5442 110.061 25.7227 106.257 25.7227 101.583C25.7227 96.9084 29.5442 93.1045 34.2402 93.1045C38.9363 93.1045 42.7578 96.9084 42.7578 101.583C42.7578 106.257 38.9363 110.061 34.2402 110.061ZM34.2402 96.5701C31.4632 96.5701 29.2043 98.8186 29.2043 101.583C29.2043 104.347 31.4632 106.595 34.2402 106.595C37.0173 106.595 39.2762 104.347 39.2762 101.583C39.2762 98.8186 37.0173 96.5701 34.2402 96.5701Z" fill="black"/>
<path d="M83.062 33.8514C78.3659 33.8514 74.5444 30.0475 74.5444 25.3731C74.5444 20.6987 78.3659 16.8948 83.062 16.8948C87.7581 16.8948 91.5796 20.6987 91.5796 25.3731C91.5796 30.0475 87.7581 33.8514 83.062 33.8514ZM83.062 20.3604C80.285 20.3604 78.0261 22.6089 78.0261 25.3731C78.0261 28.1373 80.285 30.3858 83.062 30.3858C85.839 30.3858 88.098 28.1373 88.098 25.3731C88.098 22.6089 85.839 20.3604 83.062 20.3604Z" fill="black"/>
<path d="M196.762 82.1961C192.066 82.1961 188.245 78.3922 188.245 73.7178C188.245 69.0434 192.066 65.2395 196.762 65.2395C201.459 65.2395 205.28 69.0434 205.28 73.7178C205.28 78.3922 201.459 82.1961 196.762 82.1961ZM196.762 68.7051C193.985 68.7051 191.727 70.9536 191.727 73.7178C191.727 76.482 193.985 78.7305 196.762 78.7305C199.539 78.7305 201.798 76.482 201.798 73.7178C201.798 70.9536 199.539 68.7051 196.762 68.7051Z" fill="black"/>
</svg>
