<svg width="409" height="178" viewBox="0 0 409 178" fill="none" xmlns="http://www.w3.org/2000/svg">
<path d="M90.4269 137.188C90.3728 138.328 90.6583 139.458 91.2483 140.441C91.7256 141.198 92.3577 141.849 93.1045 142.353C93.7329 142.776 94.425 143.099 95.1556 143.311C95.6115 143.451 96.0766 143.561 96.5478 143.639C96.7761 143.681 96.9837 143.796 97.1371 143.968C97.1905 144.03 97.2297 144.104 97.2521 144.182C97.2745 144.261 97.2796 144.343 97.267 144.424C97.2274 144.603 97.1277 144.764 96.984 144.88C96.8035 145.024 96.5751 145.095 96.3436 145.081H70.6442C70.4127 145.095 70.1843 145.024 70.0038 144.88C69.8601 144.764 69.7604 144.603 69.7207 144.424C69.7069 144.343 69.7114 144.261 69.7339 144.182C69.7563 144.103 69.7962 144.03 69.8507 143.968C70.0041 143.796 70.2116 143.681 70.44 143.639C70.911 143.561 71.3761 143.451 71.8322 143.311C72.5628 143.099 73.2549 142.776 73.8833 142.353C74.629 141.847 75.2609 141.197 75.7395 140.441C76.3295 139.458 76.6149 138.328 76.5609 137.188V109.169C76.5791 108.983 76.5258 108.798 76.4115 108.649C76.2972 108.501 76.1302 108.399 75.9437 108.366C75.6934 108.328 75.4456 108.276 75.2012 108.211C74.7743 108.111 74.2731 107.996 73.7394 107.86C73.2058 107.723 72.6907 107.609 72.2313 107.508C71.7718 107.408 71.4888 107.339 71.382 107.307C70.9412 107.203 70.7092 106.979 70.6906 106.628C70.672 106.276 70.9226 106.03 71.4331 105.893C72.8982 105.555 74.3449 105.144 75.7674 104.661C77.3142 104.141 78.8765 103.552 80.4543 102.895C82.0321 102.238 83.5527 101.533 85.016 100.778C86.3748 100.091 87.6932 99.3297 88.9651 98.4972C89.2347 98.3082 89.563 98.2178 89.8932 98.2417C90.2181 98.2782 90.3805 98.5291 90.3805 98.999L90.4269 137.188Z" fill="#231F20"/>
<path d="M153.728 143.639C153.955 143.683 154.162 143.798 154.317 143.968C154.369 144.031 154.407 144.104 154.429 144.183C154.45 144.262 154.455 144.344 154.442 144.424C154.404 144.604 154.304 144.765 154.159 144.88C153.979 145.024 153.75 145.095 153.519 145.081H127.792C127.56 145.095 127.332 145.024 127.151 144.88C127.007 144.764 126.908 144.603 126.868 144.424C126.856 144.343 126.861 144.261 126.883 144.182C126.905 144.104 126.945 144.03 126.998 143.968C127.151 143.796 127.359 143.681 127.587 143.639C128.058 143.561 128.523 143.451 128.98 143.311C129.71 143.099 130.402 142.776 131.031 142.353C131.776 141.848 132.408 141.197 132.887 140.441C133.477 139.458 133.762 138.328 133.708 137.188V115.47C133.672 114.013 133.561 112.559 133.374 111.113C133.211 109.697 132.813 108.318 132.195 107.029C131.611 105.827 130.72 104.793 129.611 104.027C128.463 103.239 126.933 102.845 125.021 102.845C123.038 102.845 121.501 103.232 120.408 104.004C119.354 104.733 118.515 105.723 117.977 106.874C117.443 108.027 117.114 109.262 117.002 110.524C116.882 111.82 116.821 112.97 116.821 113.973V137.206C116.767 138.346 117.053 139.477 117.643 140.459C118.121 141.215 118.753 141.866 119.499 142.371C120.127 142.794 120.819 143.117 121.55 143.329C122.006 143.47 122.471 143.579 122.942 143.658C123.17 143.701 123.377 143.817 123.532 143.986C123.584 144.049 123.622 144.123 123.643 144.201C123.665 144.28 123.669 144.362 123.657 144.442C123.619 144.622 123.519 144.783 123.374 144.899C123.193 145.042 122.965 145.114 122.733 145.099H97.0386C96.8071 145.114 96.5786 145.042 96.3982 144.899C96.2545 144.782 96.1548 144.621 96.1151 144.442C96.1026 144.362 96.1077 144.279 96.1301 144.2C96.1525 144.122 96.1917 144.049 96.2451 143.986C96.3984 143.815 96.606 143.699 96.8344 143.658C97.3055 143.579 97.7707 143.47 98.2266 143.329C98.9572 143.117 99.6493 142.794 100.278 142.371C101.023 141.866 101.655 141.215 102.134 140.459C102.724 139.477 103.009 138.346 102.955 137.206V109.169C102.974 108.984 102.921 108.799 102.808 108.651C102.694 108.502 102.528 108.4 102.343 108.366C102.091 108.329 101.841 108.277 101.596 108.211C101.169 108.111 100.668 107.996 100.138 107.86C99.6095 107.723 99.0851 107.609 98.6257 107.508C98.1662 107.408 97.8832 107.339 97.7811 107.308C97.317 107.203 97.1036 106.979 97.085 106.628C97.0664 106.276 97.317 106.03 97.8321 105.893C99.2956 105.555 100.741 105.144 102.162 104.661C103.709 104.141 105.271 103.553 106.849 102.895C108.427 102.238 109.949 101.533 111.415 100.778C112.772 100.091 114.089 99.3297 115.36 98.4972C115.629 98.3082 115.957 98.2178 116.288 98.2417C116.612 98.2782 116.775 98.5291 116.775 98.999V103.333C117.545 102.663 118.367 102.053 119.234 101.508C120.213 100.893 121.253 100.378 122.339 99.9709C123.585 99.5047 124.871 99.1504 126.181 98.9124C127.729 98.6324 129.3 98.4979 130.873 98.5108C133.255 98.4576 135.631 98.7654 137.917 99.4234C139.629 99.9342 141.228 100.756 142.632 101.846C143.829 102.792 144.808 103.977 145.505 105.323C146.162 106.615 146.644 107.986 146.939 109.402C147.228 110.789 147.4 112.198 147.454 113.613C147.505 115.005 147.528 116.309 147.528 117.519V137.22C147.474 138.36 147.759 139.49 148.349 140.473C148.828 141.229 149.46 141.88 150.205 142.385C150.834 142.808 151.526 143.131 152.257 143.343C152.739 143.477 153.231 143.576 153.728 143.639Z" fill="#231F20"/>
<path d="M155.459 141.623C155.459 141.554 155.38 141.08 155.227 140.185C155.074 139.291 154.911 138.315 154.763 137.238L154.276 134.19C154.123 133.232 154.03 132.639 153.997 132.402C153.928 131.945 154.062 131.653 154.406 131.571C154.546 131.521 154.7 131.521 154.841 131.571C154.982 131.621 155.1 131.718 155.176 131.845C155.371 132.213 155.593 132.567 155.84 132.904C156.248 133.512 156.813 134.251 157.533 135.121C158.254 135.991 159.116 136.932 160.118 137.945C161.156 138.978 162.288 139.914 163.501 140.742C164.767 141.607 166.135 142.318 167.576 142.859C169.083 143.418 170.683 143.7 172.295 143.689C174.238 143.689 175.766 143.169 176.88 142.129C177.436 141.593 177.872 140.948 178.159 140.236C178.446 139.524 178.578 138.761 178.546 137.995C178.546 137.093 178.426 136.194 178.188 135.322C177.887 134.344 177.36 133.447 176.648 132.703C175.661 131.673 174.52 130.798 173.265 130.107C171.385 129.068 169.412 128.201 167.371 127.515C165.352 126.857 163.437 125.923 161.682 124.741C160.238 123.755 158.973 122.536 157.942 121.137C157 119.841 156.297 118.392 155.867 116.857C155.433 115.271 155.218 113.635 155.227 111.993C155.245 110.529 155.479 109.075 155.923 107.677C156.443 106.045 157.328 104.549 158.513 103.297C159.944 101.808 161.685 100.639 163.617 99.8704C165.783 98.9579 168.533 98.5017 171.868 98.5017C173.844 98.4899 175.817 98.658 177.762 99.0036C179.364 99.2903 180.947 99.6696 182.504 100.14C183.611 100.466 184.696 100.86 185.753 101.321C186.555 101.691 187.006 101.896 187.112 101.928C187.251 101.98 187.374 102.067 187.47 102.179C187.515 102.293 187.549 102.41 187.572 102.53C187.572 102.599 187.655 103.06 187.827 103.899C187.999 104.739 188.17 105.688 188.342 106.696C188.514 107.704 188.681 108.631 188.852 109.466C189.024 110.3 189.108 110.78 189.108 110.88C189.15 111.024 189.137 111.177 189.071 111.312C189.005 111.447 188.891 111.553 188.75 111.61C188.444 111.761 188.17 111.669 187.929 111.332C187.227 110.381 186.474 109.467 185.674 108.594C184.539 107.354 183.286 106.224 181.933 105.218C180.414 104.079 178.772 103.107 177.038 102.321C175.25 101.497 173.299 101.074 171.325 101.084C169.203 101.084 167.656 101.639 166.685 102.749C165.689 103.86 165.157 105.299 165.195 106.778C165.193 107.573 165.315 108.364 165.557 109.123C165.851 109.976 166.37 110.736 167.06 111.327C168.092 112.19 169.238 112.912 170.467 113.471C172.395 114.356 174.392 115.088 176.439 115.662C181.429 117.182 185.205 119.233 187.767 121.812C190.328 124.391 191.609 127.737 191.609 131.85C191.63 133.823 191.266 135.782 190.537 137.621C189.816 139.39 188.673 140.963 187.205 142.207C185.517 143.597 183.557 144.633 181.446 145.25C178.752 146.04 175.95 146.414 173.14 146.359C170.727 146.383 168.318 146.189 165.942 145.779C164.138 145.468 162.357 145.039 160.61 144.497C159.44 144.138 158.299 143.692 157.199 143.16C156.383 142.74 155.9 142.48 155.765 142.38C155.683 142.292 155.622 142.188 155.584 142.074C155.529 141.928 155.487 141.776 155.459 141.623Z" fill="#231F20"/>
<path d="M213.466 137.188C213.412 138.328 213.697 139.458 214.287 140.441C214.766 141.197 215.398 141.847 216.143 142.353C216.772 142.776 217.464 143.099 218.195 143.311C218.651 143.451 219.116 143.561 219.587 143.639C219.815 143.682 220.022 143.797 220.176 143.968C220.23 144.03 220.269 144.103 220.29 144.182C220.312 144.261 220.316 144.344 220.301 144.424C220.264 144.603 220.165 144.764 220.023 144.88C219.842 145.024 219.614 145.095 219.382 145.081H193.702C193.47 145.095 193.242 145.024 193.061 144.88C192.918 144.764 192.818 144.603 192.778 144.424C192.766 144.343 192.771 144.261 192.793 144.182C192.816 144.104 192.855 144.03 192.908 143.968C193.062 143.797 193.269 143.682 193.497 143.639C193.968 143.561 194.434 143.451 194.89 143.311C195.618 143.098 196.309 142.775 196.936 142.353C197.682 141.847 198.313 141.196 198.792 140.441C199.378 139.457 199.662 138.327 199.609 137.188V109.169C199.627 108.984 199.575 108.799 199.461 108.651C199.348 108.502 199.182 108.4 198.997 108.366C198.746 108.329 198.498 108.277 198.254 108.211C197.822 108.111 197.326 107.996 196.792 107.86C196.259 107.723 195.739 107.609 195.279 107.508C194.82 107.408 194.537 107.339 194.435 107.307C193.971 107.203 193.757 106.979 193.743 106.628C193.73 106.276 193.971 106.03 194.486 105.893C195.949 105.555 197.394 105.144 198.816 104.661C200.362 104.141 201.926 103.552 203.507 102.895C205.088 102.238 206.609 101.533 208.069 100.778C209.426 100.091 210.743 99.3297 212.013 98.4972C212.283 98.3082 212.611 98.2178 212.941 98.2417C213.266 98.2782 213.429 98.5291 213.429 98.999L213.466 137.188Z" fill="#231F20"/>
<path d="M251.981 139.807C255.136 140.302 258.241 141.065 261.262 142.088C263.384 142.793 265.381 143.822 267.179 145.136C268.525 146.124 269.594 147.434 270.283 148.941C270.889 150.388 271.193 151.939 271.179 153.503C271.165 154.618 270.974 155.723 270.613 156.779C270.2 157.995 269.572 159.129 268.756 160.128C267.774 161.322 266.616 162.366 265.322 163.226C263.691 164.308 261.926 165.181 260.069 165.822C257.675 166.655 255.204 167.254 252.691 167.611C249.465 168.076 246.206 168.296 242.946 168.268C239.762 168.299 236.58 168.127 233.419 167.752C231.084 167.475 228.777 167.003 226.523 166.343C224.893 165.871 223.334 165.193 221.882 164.326C220.83 163.69 219.89 162.89 219.098 161.958C218.484 161.231 218.022 160.392 217.738 159.49C217.51 158.728 217.39 157.939 217.381 157.144C217.388 156.077 217.671 155.028 218.202 154.097C218.794 153.049 219.581 152.12 220.523 151.359C221.625 150.464 222.849 149.725 224.161 149.164C225.698 148.508 227.306 148.026 228.954 147.727C229.159 147.663 229.27 147.568 229.289 147.454C229.307 147.339 229.228 147.207 229.057 147.075C227.661 146.171 226.46 145.007 225.52 143.648C224.567 142.213 224.081 140.526 224.128 138.812C224.108 137.67 224.334 136.536 224.792 135.486C225.237 134.508 225.883 133.632 226.69 132.913C227.567 132.137 228.561 131.499 229.637 131.024C230.845 130.483 232.108 130.07 233.405 129.792C233.641 129.723 233.762 129.605 233.762 129.436C233.762 129.267 233.66 129.153 233.456 129.085C231.79 128.479 230.217 127.653 228.778 126.63C227.447 125.689 226.257 124.569 225.242 123.304C224.276 122.096 223.515 120.744 222.987 119.298C222.456 117.843 222.187 116.308 222.193 114.763C222.19 112.562 222.774 110.398 223.887 108.489C225.058 106.467 226.637 104.701 228.527 103.301C230.636 101.74 233.001 100.545 235.521 99.77C238.313 98.8996 241.228 98.467 244.157 98.4879C247.897 98.4276 251.605 99.167 255.025 100.655C255.213 100.742 255.421 100.778 255.628 100.761C255.835 100.743 256.034 100.672 256.204 100.555C256.807 100.107 257.286 99.517 257.596 98.8392C257.847 98.2612 257.987 97.6424 258.009 97.0142C258.028 96.4238 257.994 95.8329 257.907 95.2484C257.825 94.7582 257.781 94.2624 257.777 93.7656C257.768 92.7106 258.151 91.6886 258.854 90.8912C259.574 90.0517 260.657 89.6319 262.102 89.6319C262.719 89.5962 263.336 89.6923 263.911 89.9136C264.486 90.135 265.006 90.4763 265.434 90.914C266.257 91.8775 266.678 93.1115 266.613 94.3679C266.622 95.3221 266.421 96.267 266.023 97.1374C265.634 97.9721 265.096 98.7322 264.436 99.3821C263.741 100.056 262.961 100.641 262.116 101.12C261.25 101.623 260.331 102.028 259.373 102.33C259.099 102.398 258.97 102.526 258.988 102.708C258.988 102.786 259.009 102.862 259.049 102.928C259.089 102.995 259.146 103.05 259.216 103.087C261.033 104.459 262.535 106.192 263.624 108.174C264.68 110.111 265.228 112.277 265.216 114.475C265.216 116.687 264.623 118.86 263.499 120.776C262.323 122.795 260.744 124.559 258.858 125.964C256.757 127.511 254.403 128.696 251.897 129.468C249.104 130.34 246.188 130.773 243.257 130.75C242.469 130.75 241.682 130.709 240.899 130.627C240.114 130.544 239.32 130.568 238.542 130.7C237.805 130.81 237.105 131.086 236.495 131.507C236.186 131.702 235.933 131.973 235.762 132.293C235.591 132.613 235.508 132.971 235.521 133.332C235.512 133.999 235.748 134.647 236.184 135.157C236.873 135.855 237.714 136.391 238.644 136.722C240.275 137.359 241.956 137.864 243.67 138.233C245.826 138.716 248.596 139.241 251.981 139.807ZM245.159 165.407C246.75 165.403 248.337 165.26 249.902 164.978C251.438 164.72 252.941 164.297 254.385 163.719C255.631 163.243 256.772 162.533 257.744 161.629C258.151 161.264 258.477 160.821 258.702 160.326C258.926 159.831 259.044 159.297 259.048 158.755C259.055 158.255 258.951 157.759 258.743 157.302C258.536 156.845 258.23 156.438 257.847 156.109C256.898 155.3 255.813 154.661 254.64 154.22C253.173 153.642 251.655 153.196 250.106 152.888C248.417 152.532 246.681 152.208 244.904 151.902C243.329 151.631 241.527 151.295 239.498 150.894C237.466 150.493 235.469 149.938 233.525 149.233C233.326 149.164 233.108 149.164 232.908 149.233C231.702 149.652 230.601 150.323 229.683 151.199C228.755 152.072 228.291 153.315 228.291 154.927C228.241 156.617 228.746 158.277 229.729 159.663C230.724 161.008 232.009 162.119 233.493 162.916C235.177 163.815 236.993 164.452 238.876 164.805C240.945 165.21 243.05 165.412 245.159 165.407ZM243.725 101.006C242.644 100.989 241.594 101.366 240.779 102.065C239.868 102.869 239.158 103.868 238.704 104.985C238.114 106.375 237.7 107.831 237.47 109.319C236.925 112.828 236.925 116.397 237.47 119.905C237.699 121.394 238.114 122.849 238.704 124.239C239.157 125.357 239.867 126.356 240.779 127.159C241.594 127.858 242.644 128.235 243.725 128.218C244.799 128.238 245.841 127.86 246.644 127.159C247.544 126.345 248.253 125.349 248.723 124.239C249.326 122.852 249.747 121.396 249.976 119.905C250.527 116.397 250.527 112.827 249.976 109.319C249.747 107.828 249.326 106.372 248.723 104.985C248.252 103.876 247.543 102.88 246.644 102.065C245.841 101.364 244.799 100.986 243.725 101.006Z" fill="#231F20"/>
<path d="M325.475 143.639C325.703 143.681 325.911 143.796 326.064 143.968C326.118 144.03 326.157 144.104 326.179 144.182C326.202 144.261 326.207 144.343 326.194 144.424C326.155 144.603 326.055 144.764 325.911 144.88C325.731 145.024 325.502 145.095 325.271 145.081H299.544C299.312 145.095 299.084 145.024 298.903 144.88C298.758 144.765 298.658 144.604 298.62 144.424C298.607 144.344 298.611 144.261 298.632 144.183C298.654 144.104 298.693 144.031 298.745 143.968C298.901 143.796 299.11 143.681 299.339 143.639C299.81 143.561 300.276 143.451 300.732 143.311C301.462 143.099 302.154 142.776 302.783 142.353C303.528 141.847 304.16 141.197 304.639 140.441C305.229 139.458 305.514 138.328 305.46 137.188V115.47C305.423 114.06 305.316 112.605 305.126 111.113C304.963 109.697 304.565 108.318 303.947 107.029C303.358 105.815 302.458 104.773 301.335 104.004C300.19 103.216 298.66 102.822 296.745 102.822C294.765 102.822 293.228 103.209 292.133 103.981C291.078 104.71 290.239 105.7 289.701 106.851C289.165 108.004 288.836 109.239 288.726 110.501C288.606 111.797 288.545 112.947 288.545 113.951V137.183C288.491 138.323 288.777 139.454 289.367 140.436C289.844 141.193 290.476 141.844 291.223 142.348C291.851 142.771 292.544 143.095 293.274 143.306C293.73 143.447 294.195 143.557 294.666 143.635C294.895 143.676 295.102 143.792 295.256 143.963C295.309 144.026 295.348 144.099 295.371 144.178C295.393 144.256 295.398 144.339 295.386 144.42C295.346 144.599 295.246 144.759 295.103 144.876C294.922 145.019 294.694 145.091 294.462 145.077H268.791C268.559 145.091 268.331 145.019 268.15 144.876C268.005 144.76 267.905 144.599 267.867 144.42C267.854 144.339 267.858 144.257 267.879 144.178C267.901 144.099 267.94 144.026 267.992 143.963C268.148 143.793 268.357 143.677 268.586 143.635C269.057 143.556 269.523 143.446 269.979 143.306C270.709 143.095 271.401 142.771 272.03 142.348C272.775 141.843 273.407 141.192 273.886 140.436C274.476 139.454 274.761 138.323 274.707 137.183V109.169C274.725 108.983 274.672 108.798 274.558 108.649C274.444 108.501 274.277 108.399 274.09 108.366C273.84 108.328 273.592 108.276 273.348 108.211C272.921 108.111 272.42 107.996 271.886 107.86C271.352 107.723 270.837 107.609 270.378 107.508C269.918 107.408 269.635 107.339 269.528 107.307C269.064 107.203 268.856 106.979 268.837 106.628C268.818 106.276 269.069 106.03 269.579 105.893C271.045 105.555 272.491 105.144 273.914 104.661C275.461 104.141 277.023 103.552 278.601 102.895C280.179 102.238 281.699 101.533 283.162 100.778C284.521 100.091 285.84 99.3297 287.112 98.4972C287.381 98.3082 287.709 98.2178 288.04 98.2417C288.364 98.2782 288.527 98.5291 288.527 98.999V103.333C289.296 102.662 290.119 102.052 290.986 101.508C291.964 100.894 293.003 100.379 294.086 99.9709C295.334 99.5055 296.621 99.1512 297.933 98.9124C299.479 98.6325 301.049 98.4981 302.62 98.5108C305.004 98.4572 307.381 98.765 309.669 99.4234C311.381 99.9342 312.98 100.756 314.384 101.846C315.581 102.792 316.56 103.977 317.257 105.323C317.914 106.615 318.396 107.986 318.691 109.402C318.976 110.79 319.147 112.198 319.201 113.613C319.252 115.005 319.28 116.309 319.28 117.519V137.22C319.226 138.36 319.511 139.49 320.101 140.473C320.579 141.23 321.211 141.881 321.958 142.385C322.586 142.808 323.278 143.131 324.009 143.343C324.49 143.476 324.98 143.575 325.475 143.639Z" fill="#231F20"/>
<path d="M345.105 137.188C345.051 138.328 345.336 139.458 345.926 140.441C346.405 141.197 347.036 141.847 347.782 142.353C348.411 142.776 349.103 143.099 349.833 143.311C350.289 143.451 350.754 143.561 351.225 143.639C351.453 143.682 351.661 143.797 351.815 143.968C351.868 144.031 351.906 144.104 351.928 144.183C351.949 144.261 351.954 144.344 351.94 144.424C351.902 144.603 351.804 144.764 351.662 144.88C351.481 145.024 351.253 145.095 351.021 145.081H325.303C325.072 145.095 324.843 145.024 324.663 144.88C324.519 144.764 324.419 144.603 324.38 144.424C324.367 144.343 324.372 144.261 324.395 144.182C324.417 144.104 324.456 144.03 324.51 143.968C324.664 143.797 324.871 143.682 325.099 143.639C325.57 143.561 326.035 143.451 326.491 143.311C327.22 143.098 327.91 142.775 328.538 142.353C329.283 141.847 329.915 141.196 330.394 140.441C330.98 139.457 331.264 138.327 331.211 137.188V109.169C331.229 108.984 331.176 108.799 331.063 108.651C330.95 108.502 330.784 108.4 330.598 108.366C330.348 108.329 330.1 108.277 329.856 108.211C329.424 108.111 328.928 107.996 328.394 107.86C327.86 107.723 327.34 107.609 326.881 107.508C326.422 107.408 326.139 107.339 326.036 107.307C325.572 107.203 325.359 106.979 325.345 106.628C325.331 106.276 325.572 106.03 326.087 105.893C327.551 105.555 328.996 105.144 330.417 104.661C331.964 104.141 333.528 103.552 335.109 102.895C336.69 102.238 338.21 101.533 339.67 100.778C341.028 100.091 342.345 99.3297 343.615 98.4972C343.885 98.3082 344.213 98.2178 344.543 98.2417C344.868 98.2782 345.007 98.5291 345.007 98.999L345.105 137.188Z" fill="#231F20"/>
<path d="M396.925 140.464C397.121 140.404 397.33 140.398 397.529 140.447C397.728 140.496 397.909 140.598 398.053 140.742C398.19 140.897 398.269 141.094 398.279 141.299C398.288 141.504 398.226 141.707 398.104 141.873C397.821 142.347 397.485 142.788 397.102 143.187C396.561 143.749 395.935 144.225 395.245 144.597C394.355 145.08 393.408 145.453 392.424 145.706C391.143 146.029 389.825 146.182 388.503 146.162C386.671 146.223 384.856 145.797 383.25 144.93C382.009 144.278 380.986 143.288 380.303 142.079C380.26 141.963 380.178 141.865 380.071 141.802C379.964 141.738 379.838 141.712 379.713 141.727C379.472 141.757 379.248 141.863 379.073 142.029C378.971 142.133 378.655 142.407 378.145 142.863C377.447 143.427 376.691 143.916 375.89 144.323C374.768 144.904 373.591 145.376 372.377 145.733C370.846 146.176 369.257 146.388 367.662 146.363C364.624 146.363 362.07 145.943 360 145.104C358.112 144.382 356.4 143.275 354.979 141.855C353.724 140.582 352.773 139.05 352.195 137.37C351.643 135.771 351.358 134.095 351.35 132.406C351.307 129.909 352.112 127.468 353.638 125.471C355.16 123.486 357.209 121.951 359.559 121.036C360.872 120.526 362.239 120.162 363.634 119.95C365.054 119.731 366.46 119.494 367.861 119.27C369.263 119.047 370.646 118.741 371.992 118.39C373.355 118.03 374.646 117.442 375.806 116.651C377.014 115.881 377.94 114.751 378.447 113.426C378.948 112.086 379.2 110.669 379.189 109.242C379.194 108.194 379.047 107.151 378.753 106.144C378.494 105.217 378.078 104.339 377.523 103.548C377.03 102.845 376.399 102.246 375.667 101.786C374.987 101.355 374.193 101.126 373.384 101.129C371.917 101.129 370.834 101.499 370.135 102.238C369.428 103.018 368.88 103.924 368.52 104.907C368.131 105.952 367.759 107.033 367.421 108.16C367.105 109.236 366.545 110.226 365.782 111.058C365.121 111.724 364.301 112.218 363.397 112.495C362.501 112.801 361.561 112.963 360.613 112.974C359.77 112.988 358.933 112.833 358.153 112.518C357.457 112.234 356.825 111.815 356.297 111.286C355.786 110.765 355.394 110.142 355.146 109.461C354.886 108.759 354.755 108.018 354.761 107.271C354.77 106.185 355.034 105.115 355.531 104.145C356.164 102.975 357.111 101.998 358.269 101.321C359.91 100.354 361.705 99.6647 363.578 99.2816C366.357 98.7067 369.194 98.4449 372.033 98.5014C375.308 98.437 378.577 98.8178 381.746 99.6329C384.153 100.249 386.392 101.377 388.308 102.936C389.995 104.375 391.268 106.226 391.997 108.302C392.802 110.653 393.191 113.122 393.148 115.602C393.148 118.86 393.046 121.917 392.842 124.773C392.637 127.629 392.503 130.143 392.438 132.315C392.349 134.141 392.4 135.971 392.591 137.79C392.763 139.218 393.241 140.103 394.025 140.436C394.426 140.614 394.866 140.693 395.306 140.664C395.85 140.633 396.391 140.566 396.925 140.464ZM379.133 117.938C379.142 117.853 379.121 117.767 379.075 117.695C379.029 117.622 378.96 117.566 378.878 117.537C378.795 117.502 378.703 117.498 378.617 117.526C378.532 117.554 378.46 117.611 378.414 117.687C378.14 117.988 377.89 118.276 377.667 118.545C377.386 118.878 377.087 119.197 376.771 119.498C376.122 120.174 375.458 120.803 374.771 121.392C374.084 121.981 373.407 122.574 372.725 123.18C372.038 123.719 371.365 124.253 370.697 124.791C370.034 125.333 369.413 125.923 368.841 126.557C367.978 127.524 367.309 128.644 366.868 129.856C366.437 131.079 366.22 132.366 366.228 133.661C366.232 134.588 366.369 135.509 366.636 136.398C366.894 137.291 367.321 138.129 367.894 138.867C368.472 139.602 369.207 140.205 370.047 140.632C371.025 141.109 372.107 141.342 373.198 141.312C374.252 141.359 375.296 141.095 376.196 140.555C376.928 140.089 377.543 139.465 377.992 138.73C378.401 138.066 378.703 137.344 378.887 136.59C379.034 136.038 379.12 135.472 379.143 134.902L379.133 117.938Z" fill="#231F20"/>
<path d="M59.1522 37.5638C56.1436 37.5638 53.2025 38.441 50.701 40.0844C48.1994 41.7278 46.2497 44.0636 45.0984 46.7965C43.947 49.5294 43.6458 52.5366 44.2327 55.4378C44.8197 58.339 46.2685 61.0039 48.3959 63.0956C50.5232 65.1872 53.2337 66.6116 56.1845 67.1887C59.1353 67.7658 62.1939 67.4696 64.9734 66.3376C67.753 65.2056 70.1288 63.2887 71.8003 60.8292C73.4717 58.3696 74.3639 55.478 74.3639 52.52C74.3639 48.5534 72.7612 44.7492 69.9085 41.9444C67.0557 39.1396 63.1866 37.5638 59.1522 37.5638ZM64.99 52.52C64.0107 52.52 63.0534 52.2345 62.2391 51.6995C61.4248 51.1646 60.7902 50.4043 60.4154 49.5147C60.0407 48.6251 59.9426 47.6463 60.1337 46.7019C60.3247 45.7576 60.7963 44.8902 61.4888 44.2093C62.1812 43.5285 63.0635 43.0648 64.024 42.877C64.9845 42.6891 65.9801 42.7855 66.8848 43.154C67.7896 43.5225 68.5629 44.1465 69.107 44.947C69.6511 45.7476 69.9415 46.6888 69.9415 47.6517C69.9415 48.9428 69.4198 50.1811 68.4912 51.0941C67.5626 52.0071 66.3032 52.52 64.99 52.52Z" fill="#231F20"/>
<path d="M93.4558 19.3363L87.6087 34.338C92.1722 41.2489 93.9711 49.5765 92.6584 57.7144C91.3457 65.8523 87.0144 73.224 80.5 78.4075C73.9856 83.591 65.7497 86.219 57.3809 85.7847C49.0121 85.3503 41.1034 81.8844 35.1803 76.0554C29.2571 70.2263 25.7393 62.4473 25.3053 54.2187C24.8714 45.9901 27.552 37.895 32.8301 31.4949C38.1083 25.0949 45.61 20.8432 53.8882 19.5602C62.1664 18.2771 70.6347 20.0535 77.6594 24.5467L93.4373 19.3317C93.3491 19.2405 93.2702 19.1492 93.1774 19.0625C84.1637 9.96725 71.8481 4.75947 58.9334 4.58208C46.0187 4.40469 33.5599 9.27218 24.2914 18.1163C15.0228 26.9605 9.70154 39.0588 9.49547 51.7561C9.28941 64.4534 14.2153 76.7125 23.1922 85.8429C32.1691 94.9733 44.4636 100.229 57.3775 100.457C70.2914 100.685 82.7697 95.8659 92.0739 87.058C101.378 78.2501 106.748 66.1727 107.006 53.4762C107.263 40.7798 102.386 28.5016 93.4465 19.3363H93.4558Z" fill="#8DC63F"/>
</svg>
