<svg width="30" height="30" viewBox="0 0 30 30" fill="none" xmlns="http://www.w3.org/2000/svg">
<path d="M21.2539 15.0001C21.2546 15.5519 21.0176 16.0772 20.6035 16.4419L11.3044 24.6228C10.6635 25.1606 9.71046 25.0884 9.15792 24.4602C8.60538 23.8319 8.6554 22.8775 9.27058 22.3105L17.4023 15.1569C17.4475 15.1173 17.4734 15.0602 17.4734 15.0001C17.4734 14.9401 17.4475 14.8829 17.4023 14.8434L9.27058 7.68972C8.6554 7.12271 8.60538 6.16829 9.15792 5.54008C9.71046 4.91188 10.6635 4.83966 11.3044 5.37744L20.6002 13.5559C21.0153 13.9212 21.2534 14.4472 21.2539 15.0001Z" fill="white"/>
<mask id="mask0_27_416" style="mask-type:alpha" maskUnits="userSpaceOnUse" x="8" y="5" width="14" height="20">
<path d="M21.2539 15.0001C21.2546 15.5519 21.0176 16.0772 20.6035 16.4419L11.3044 24.6228C10.6635 25.1606 9.71046 25.0884 9.15792 24.4602C8.60538 23.8319 8.6554 22.8775 9.27058 22.3105L17.4023 15.1569C17.4475 15.1173 17.4734 15.0602 17.4734 15.0001C17.4734 14.9401 17.4475 14.8829 17.4023 14.8434L9.27058 7.68972C8.6554 7.12271 8.60538 6.16829 9.15792 5.54008C9.71046 4.91188 10.6635 4.83966 11.3044 5.37744L20.6002 13.5559C21.0153 13.9212 21.2534 14.4472 21.2539 15.0001Z" fill="white"/>
</mask>
<g mask="url(#mask0_27_416)">
</g>
</svg>
